<svg width="634" height="192" viewBox="0 0 634 192" fill="none" xmlns="http://www.w3.org/2000/svg">
<path d="M147.496 78H163.096V162H147.496V78ZM104.056 162H88.4558V78H104.056V162ZM148.696 126H102.736V112.68H148.696V126ZM212.964 162.84C206.404 162.84 200.564 161.44 195.444 158.64C190.324 155.76 186.284 151.84 183.324 146.88C180.364 141.92 178.884 136.28 178.884 129.96C178.884 123.56 180.364 117.92 183.324 113.04C186.284 108.08 190.324 104.2 195.444 101.4C200.564 98.6 206.404 97.2 212.964 97.2C219.604 97.2 225.484 98.6 230.604 101.4C235.804 104.2 239.844 108.04 242.724 112.92C245.684 117.8 247.164 123.48 247.164 129.96C247.164 136.28 245.684 141.92 242.724 146.88C239.844 151.84 235.804 155.76 230.604 158.64C225.484 161.44 219.604 162.84 212.964 162.84ZM212.964 150C216.644 150 219.924 149.2 222.804 147.6C225.684 146 227.924 143.68 229.524 140.64C231.204 137.6 232.044 134.04 232.044 129.96C232.044 125.8 231.204 122.24 229.524 119.28C227.924 116.24 225.684 113.92 222.804 112.32C219.924 110.72 216.684 109.92 213.084 109.92C209.404 109.92 206.124 110.72 203.244 112.32C200.444 113.92 198.204 116.24 196.524 119.28C194.844 122.24 194.004 125.8 194.004 129.96C194.004 134.04 194.844 137.6 196.524 140.64C198.204 143.68 200.444 146 203.244 147.6C206.124 149.2 209.364 150 212.964 150ZM342.388 97.2C347.508 97.2 352.028 98.2 355.948 100.2C359.948 102.2 363.068 105.28 365.308 109.44C367.548 113.52 368.668 118.8 368.668 125.28V162H353.668V127.2C353.668 121.52 352.428 117.28 349.948 114.48C347.468 111.68 343.908 110.28 339.268 110.28C335.988 110.28 333.068 111 330.508 112.44C328.028 113.88 326.068 116 324.628 118.8C323.268 121.6 322.588 125.16 322.588 129.48V162H307.588V127.2C307.588 121.52 306.348 117.28 303.868 114.48C301.388 111.68 297.828 110.28 293.188 110.28C289.908 110.28 286.988 111 284.428 112.44C281.948 113.88 279.988 116 278.548 118.8C277.188 121.6 276.508 125.16 276.508 129.48V162H261.508V97.92H275.788V114.96L273.268 109.92C275.428 105.76 278.548 102.6 282.628 100.44C286.788 98.28 291.508 97.2 296.788 97.2C302.788 97.2 307.988 98.68 312.388 101.64C316.868 104.6 319.828 109.08 321.268 115.08L315.388 113.04C317.468 108.24 320.908 104.4 325.708 101.52C330.508 98.64 336.068 97.2 342.388 97.2ZM418.073 162.84C410.953 162.84 404.713 161.44 399.353 158.64C394.073 155.76 389.953 151.84 386.993 146.88C384.113 141.92 382.673 136.28 382.673 129.96C382.673 123.56 384.073 117.92 386.873 113.04C389.753 108.08 393.673 104.2 398.633 101.4C403.673 98.6 409.393 97.2 415.793 97.2C422.033 97.2 427.593 98.56 432.473 101.28C437.353 104 441.193 107.84 443.993 112.8C446.793 117.76 448.193 123.6 448.193 130.32C448.193 130.96 448.153 131.68 448.073 132.48C448.073 133.28 448.033 134.04 447.953 134.76H394.553V124.8H440.033L434.153 127.92C434.233 124.24 433.473 121 431.873 118.2C430.273 115.4 428.073 113.2 425.273 111.6C422.553 110 419.393 109.2 415.793 109.2C412.113 109.2 408.873 110 406.073 111.6C403.353 113.2 401.193 115.44 399.593 118.32C398.073 121.12 397.313 124.44 397.313 128.28V130.68C397.313 134.52 398.193 137.92 399.953 140.88C401.713 143.84 404.193 146.12 407.393 147.72C410.593 149.32 414.273 150.12 418.433 150.12C422.033 150.12 425.273 149.56 428.153 148.44C431.033 147.32 433.593 145.56 435.833 143.16L443.873 152.4C440.993 155.76 437.353 158.36 432.953 160.2C428.633 161.96 423.673 162.84 418.073 162.84ZM462.602 162V72.96H477.602V162H462.602ZM502.569 186.12C499.449 186.12 496.329 185.6 493.209 184.56C490.089 183.52 487.489 182.08 485.409 180.24L491.409 169.2C492.929 170.56 494.649 171.64 496.569 172.44C498.489 173.24 500.449 173.64 502.449 173.64C505.169 173.64 507.369 172.96 509.049 171.6C510.729 170.24 512.289 167.96 513.729 164.76L517.449 156.36L518.649 154.56L542.889 97.92H557.289L527.289 167.16C525.289 171.96 523.049 175.76 520.569 178.56C518.169 181.36 515.449 183.32 512.409 184.44C509.449 185.56 506.169 186.12 502.569 186.12ZM515.769 164.28L486.849 97.92H502.449L525.969 153.24L515.769 164.28Z" fill="white"/>
<rect x="55" y="82.6426" width="103.805" height="8.25502" transform="rotate(-51.8978 55 82.6426)" fill="#D9D9D9"/>
<rect x="186.322" y="68.5103" width="92.0995" height="8.25502" transform="rotate(-139.532 186.322 68.5103)" fill="#D9D9D9"/>
<path d="M167 51H559L595.5 68H185.806L167 51Z" fill="#D9D9D9"/>
</svg>
