<svg width="634" height="570" viewBox="0 0 634 570" fill="none" xmlns="http://www.w3.org/2000/svg">
<path opacity="0.6" d="M0 312C0 295.431 13.4315 282 30 282H196C212.569 282 226 295.431 226 312V570H0V312Z" fill="#BFA8E8"/>
<path opacity="0.6" d="M169 164C169 147.431 182.431 134 199 134H386C402.569 134 416 147.431 416 164V570H169V164Z" fill="#AE84F9"/>
<path opacity="0.6" d="M378 354C378 337.431 391.431 324 408 324H604C620.569 324 634 337.431 634 354V570H378V354Z" fill="#AC88EF"/>
<rect y="67" width="634" height="503" fill="url(#paint0_linear_79_8)"/>
<path d="M130.496 259H146.096V343H130.496V259ZM87.0558 343H71.4558V259H87.0558V343ZM131.696 307H85.7358V293.68H131.696V307ZM195.964 343.84C189.404 343.84 183.564 342.44 178.444 339.64C173.324 336.76 169.284 332.84 166.324 327.88C163.364 322.92 161.884 317.28 161.884 310.96C161.884 304.56 163.364 298.92 166.324 294.04C169.284 289.08 173.324 285.2 178.444 282.4C183.564 279.6 189.404 278.2 195.964 278.2C202.604 278.2 208.484 279.6 213.604 282.4C218.804 285.2 222.844 289.04 225.724 293.92C228.684 298.8 230.164 304.48 230.164 310.96C230.164 317.28 228.684 322.92 225.724 327.88C222.844 332.84 218.804 336.76 213.604 339.64C208.484 342.44 202.604 343.84 195.964 343.84ZM195.964 331C199.644 331 202.924 330.2 205.804 328.6C208.684 327 210.924 324.68 212.524 321.64C214.204 318.6 215.044 315.04 215.044 310.96C215.044 306.8 214.204 303.24 212.524 300.28C210.924 297.24 208.684 294.92 205.804 293.32C202.924 291.72 199.684 290.92 196.084 290.92C192.404 290.92 189.124 291.72 186.244 293.32C183.444 294.92 181.204 297.24 179.524 300.28C177.844 303.24 177.004 306.8 177.004 310.96C177.004 315.04 177.844 318.6 179.524 321.64C181.204 324.68 183.444 327 186.244 328.6C189.124 330.2 192.364 331 195.964 331ZM325.388 278.2C330.508 278.2 335.028 279.2 338.948 281.2C342.948 283.2 346.068 286.28 348.308 290.44C350.548 294.52 351.668 299.8 351.668 306.28V343H336.668V308.2C336.668 302.52 335.428 298.28 332.948 295.48C330.468 292.68 326.908 291.28 322.268 291.28C318.988 291.28 316.068 292 313.508 293.44C311.028 294.88 309.068 297 307.628 299.8C306.268 302.6 305.588 306.16 305.588 310.48V343H290.588V308.2C290.588 302.52 289.348 298.28 286.868 295.48C284.388 292.68 280.828 291.28 276.188 291.28C272.908 291.28 269.988 292 267.428 293.44C264.948 294.88 262.988 297 261.548 299.8C260.188 302.6 259.508 306.16 259.508 310.48V343H244.508V278.92H258.788V295.96L256.268 290.92C258.428 286.76 261.548 283.6 265.628 281.44C269.788 279.28 274.508 278.2 279.788 278.2C285.788 278.2 290.988 279.68 295.388 282.64C299.868 285.6 302.828 290.08 304.268 296.08L298.388 294.04C300.468 289.24 303.908 285.4 308.708 282.52C313.508 279.64 319.068 278.2 325.388 278.2ZM401.073 343.84C393.953 343.84 387.713 342.44 382.353 339.64C377.073 336.76 372.953 332.84 369.993 327.88C367.113 322.92 365.673 317.28 365.673 310.96C365.673 304.56 367.073 298.92 369.873 294.04C372.753 289.08 376.673 285.2 381.633 282.4C386.673 279.6 392.393 278.2 398.793 278.2C405.033 278.2 410.593 279.56 415.473 282.28C420.353 285 424.193 288.84 426.993 293.8C429.793 298.76 431.193 304.6 431.193 311.32C431.193 311.96 431.153 312.68 431.073 313.48C431.073 314.28 431.033 315.04 430.953 315.76H377.553V305.8H423.033L417.153 308.92C417.233 305.24 416.473 302 414.873 299.2C413.273 296.4 411.073 294.2 408.273 292.6C405.553 291 402.393 290.2 398.793 290.2C395.113 290.2 391.873 291 389.073 292.6C386.353 294.2 384.193 296.44 382.593 299.32C381.073 302.12 380.313 305.44 380.313 309.28V311.68C380.313 315.52 381.193 318.92 382.953 321.88C384.713 324.84 387.193 327.12 390.393 328.72C393.593 330.32 397.273 331.12 401.433 331.12C405.033 331.12 408.273 330.56 411.153 329.44C414.033 328.32 416.593 326.56 418.833 324.16L426.873 333.4C423.993 336.76 420.353 339.36 415.953 341.2C411.633 342.96 406.673 343.84 401.073 343.84ZM445.602 343V253.96H460.602V343H445.602ZM485.569 367.12C482.449 367.12 479.329 366.6 476.209 365.56C473.089 364.52 470.489 363.08 468.409 361.24L474.409 350.2C475.929 351.56 477.649 352.64 479.569 353.44C481.489 354.24 483.449 354.64 485.449 354.64C488.169 354.64 490.369 353.96 492.049 352.6C493.729 351.24 495.289 348.96 496.729 345.76L500.449 337.36L501.649 335.56L525.889 278.92H540.289L510.289 348.16C508.289 352.96 506.049 356.76 503.569 359.56C501.169 362.36 498.449 364.32 495.409 365.44C492.449 366.56 489.169 367.12 485.569 367.12ZM498.769 345.28L469.849 278.92H485.449L508.969 334.24L498.769 345.28Z" fill="white"/>
<defs>
<linearGradient id="paint0_linear_79_8" x1="317" y1="422" x2="317" y2="652" gradientUnits="userSpaceOnUse">
<stop stop-opacity="0"/>
<stop offset="1" stop-color="#2C2D30"/>
</linearGradient>
</defs>
</svg>
