<?xml version="1.0" standalone="no"?>
<!DOCTYPE svg PUBLIC "-//W3C//DTD SVG 20010904//EN"
 "http://www.w3.org/TR/2001/REC-SVG-20010904/DTD/svg10.dtd">
<svg version="1.0" xmlns="http://www.w3.org/2000/svg"
 width="787.000000pt" height="385.000000pt" viewBox="0 0 787.000000 385.000000"
 preserveAspectRatio="xMidYMid meet">

<g transform="translate(0.000000,385.000000) scale(0.100000,-0.100000)"
fill="#000000" stroke="none">
<path d="M0 1925 l0 -1925 3935 0 3935 0 0 1925 0 1925 -3935 0 -3935 0 0
-1925z m1904 1013 c11 -95 7 -220 -6 -216 -13 5 -33 228 -23 256 10 27 23 9
29 -40z m125 -70 c5 -13 12 -47 16 -76 4 -28 11 -49 16 -46 5 3 21 28 35 55
22 44 47 69 59 57 9 -9 -133 -233 -150 -236 -16 -4 -15 0 6 37 24 43 24 45 -7
201 -8 36 12 42 25 8z m-266 0 c9 -7 21 -27 26 -45 l9 -32 -54 -12 c-41 -9
-54 -16 -52 -28 3 -12 16 -16 56 -16 56 1 67 -10 26 -25 -40 -16 -79 -12 -98
9 -23 25 -32 92 -16 120 19 36 72 51 103 29z m-183 -134 c22 -36 30 -58 23
-65 -6 -6 -22 9 -46 46 -39 57 -58 66 -88 39 -17 -15 -16 -19 17 -69 19 -30
34 -59 34 -65 0 -23 -22 -7 -50 37 -34 53 -51 66 -74 57 -30 -12 -28 -41 8
-97 28 -43 32 -56 21 -61 -9 -3 -29 19 -59 67 -35 55 -42 73 -30 75 8 2 26 14
39 28 13 13 33 24 45 24 11 0 23 7 26 15 4 9 18 22 32 29 37 20 63 4 102 -60z
m874 -14 c26 -26 14 -36 -18 -15 -33 22 -65 16 -89 -17 -25 -33 -16 -74 18
-90 28 -13 33 -28 9 -28 -8 0 -29 14 -46 30 -25 26 -29 36 -24 63 3 18 20 45
37 60 26 24 37 28 63 23 17 -4 40 -15 50 -26z m-230 -28 c2 -4 1 -14 -3 -20
-10 -17 -41 -4 -34 14 6 15 29 19 37 6z m385 -108 c30 -38 27 -80 -8 -115 -36
-36 -79 -38 -115 -6 -41 36 -43 69 -6 111 26 30 39 36 70 36 30 0 43 -6 59
-26z m-1323 -3 c42 -26 60 -71 42 -107 -29 -61 -96 -69 -144 -17 -33 36 -31
77 5 114 34 34 54 36 97 10z m-179 -192 c123 -48 120 -46 106 -60 -7 -7 -26
-4 -61 10 l-51 20 -20 -55 c-12 -30 -21 -59 -21 -63 0 -5 23 -17 50 -27 49
-18 59 -27 41 -39 -12 -7 -231 74 -231 86 0 17 19 18 55 3 21 -8 42 -13 49
-11 16 6 50 107 40 117 -5 4 -26 13 -46 20 -21 6 -38 18 -38 26 0 20 7 19 127
-27z m1620 29 c-2 -7 7 -26 20 -42 13 -16 22 -35 19 -42 -3 -8 6 -25 19 -38
29 -29 32 -67 8 -88 -10 -9 -41 -27 -70 -42 -42 -21 -52 -23 -57 -11 -4 11 12
24 54 45 63 32 73 50 44 81 -16 17 -19 17 -75 -11 -67 -34 -69 -35 -69 -17 0
7 25 25 55 40 44 21 55 32 55 51 0 46 -23 50 -88 17 -55 -28 -72 -30 -72 -9 0
9 129 77 148 78 8 0 12 -6 9 -12z m2333 -239 l0 -230 -22 3 c-23 3 -23 3 -26
231 l-2 227 25 0 25 0 0 -231z m-1680 116 l0 -95 115 0 115 0 0 95 c0 95 0 95
25 95 l25 0 0 -220 0 -220 -25 0 -25 0 0 100 0 100 -115 0 -115 0 0 -100 0
-100 -25 0 -25 0 0 220 0 220 25 0 c25 0 25 0 25 -95z m-1388 -42 l88 -88 0
48 0 47 70 0 70 0 0 -119 0 -118 85 -91 c47 -49 85 -93 85 -96 0 -3 -25 -6
-55 -6 l-55 0 0 -160 0 -160 -155 0 -155 0 0 130 0 130 -70 0 -70 0 0 -130 0
-130 -155 0 -155 0 0 160 0 160 -55 0 c-30 0 -55 3 -55 8 0 9 479 502 488 502
4 0 46 -39 94 -87z m1995 -13 c43 -26 63 -68 63 -133 0 -96 -69 -163 -157
-154 -82 8 -127 63 -127 152 0 94 57 155 144 155 27 0 58 -8 77 -20z m199 6
c5 -12 10 -12 39 0 44 18 85 18 112 -1 19 -13 25 -13 57 0 66 28 134 14 155
-32 6 -13 11 -77 11 -144 0 -119 0 -120 -22 -117 -22 3 -23 8 -28 118 -3 63
-9 121 -13 128 -5 6 -26 12 -47 12 -71 0 -70 2 -70 -136 l0 -124 -25 0 -25 0
0 108 c0 129 -10 152 -68 152 -20 0 -42 -4 -49 -8 -8 -5 -13 -47 -15 -127 -3
-116 -4 -120 -25 -123 l-23 -3 0 155 c0 133 2 156 15 156 9 0 18 -6 21 -14z
m675 4 c29 -16 49 -64 49 -120 l0 -50 -100 0 c-103 0 -110 -3 -90 -41 18 -33
68 -52 121 -46 35 4 49 2 53 -8 7 -20 -6 -26 -67 -32 -102 -10 -167 44 -167
139 0 75 34 137 85 158 28 12 93 12 116 0z m380 -120 c54 -143 44 -146 104 30
28 85 34 95 56 95 16 0 23 -5 21 -15 -6 -28 -155 -425 -165 -437 -11 -15 -47
-17 -47 -3 0 5 12 39 27 74 l26 65 -57 148 c-32 81 -61 154 -63 161 -4 10 2
13 23 10 27 -3 32 -11 75 -128z m617 124 c12 -4 22 -14 22 -24 0 -15 -9 -17
-61 -16 -55 1 -63 -2 -85 -27 -26 -30 -33 -93 -14 -141 13 -34 63 -58 113 -54
32 2 42 -1 45 -13 6 -30 -84 -39 -143 -15 -49 21 -75 68 -75 136 0 68 24 117
71 142 34 18 85 23 127 12z m321 -12 c90 -48 95 -202 9 -265 -14 -11 -48 -22
-75 -24 -58 -6 -108 23 -136 77 -22 42 -18 127 8 166 39 61 128 81 194 46z
m205 3 c5 -14 9 -14 35 0 38 19 90 19 118 0 19 -13 25 -13 57 0 53 22 100 19
133 -9 28 -24 28 -26 31 -155 l4 -131 -26 0 -26 0 0 114 c0 131 -7 146 -68
146 -62 0 -64 -5 -65 -136 -2 -115 -3 -119 -24 -122 -23 -3 -23 -1 -23 100 0
63 -5 113 -13 128 -13 26 -50 36 -93 26 -23 -6 -23 -10 -26 -129 l-3 -122 -25
0 -25 0 -3 140 c-1 76 0 145 2 152 7 18 33 16 40 -2z m-5305 -241 c30 -21 51
-71 44 -107 -3 -15 -19 -38 -35 -52 -41 -35 -88 -33 -130 4 -27 24 -33 36 -33
71 0 35 6 47 33 71 37 33 84 38 121 13z m1778 -19 c34 -39 31 -98 -6 -136 -81
-80 -212 20 -157 120 32 57 121 66 163 16z m2711 3 c-3 -29 -7 -33 -35 -36
-32 -3 -33 -2 -33 32 0 35 1 36 36 36 34 0 35 -1 32 -32z m-4338 -308 c0 -4
-21 -16 -46 -26 -51 -19 -52 -28 -20 -106 l16 -38 49 20 c43 16 50 17 55 4 3
-8 0 -17 -7 -19 -6 -3 -54 -20 -105 -40 -52 -19 -100 -35 -109 -35 -27 0 -8
23 34 39 23 9 44 19 48 23 7 7 -22 95 -36 112 -5 5 -27 2 -54 -9 -33 -12 -50
-14 -57 -7 -12 12 -9 14 127 66 85 33 105 36 105 16z m1539 -30 c49 -23 61
-34 53 -42 -9 -9 -26 -5 -71 17 -50 23 -63 26 -76 15 -33 -27 -18 -55 45 -85
33 -16 59 -34 56 -39 -4 -13 -8 -13 -74 16 -57 24 -84 19 -90 -18 -2 -16 11
-26 58 -49 33 -16 60 -35 60 -42 0 -20 -14 -16 -90 22 -62 31 -88 55 -61 55 5
0 12 16 15 36 4 19 13 37 20 40 8 3 17 19 20 36 7 37 33 68 55 68 9 0 45 -14
80 -30z m581 -41 c0 -27 2 -29 40 -29 39 0 40 1 40 36 0 21 4 33 10 29 6 -3
10 -37 10 -75 0 -38 -4 -72 -10 -75 -6 -4 -10 8 -10 29 0 35 -1 36 -40 36 -38
0 -40 -2 -40 -29 0 -17 -4 -33 -10 -36 -6 -4 -10 23 -10 75 0 52 4 79 10 75 6
-3 10 -19 10 -36z m810 31 c0 -5 -9 -10 -20 -10 -28 0 -25 -30 3 -31 l22 -2
-22 -4 c-20 -4 -23 -10 -23 -56 0 -70 -19 -48 -21 25 -1 34 3 63 11 73 14 17
50 21 50 5z m-592 -52 c28 -28 4 -98 -34 -98 -19 0 -54 36 -54 56 0 46 57 73
88 42z m192 -8 c13 -24 13 -77 0 -85 -6 -4 -10 9 -10 32 0 42 -14 65 -36 56
-9 -3 -14 -21 -14 -51 0 -56 -17 -46 -22 13 -2 27 -8 40 -18 40 -10 0 -16 -13
-18 -40 -5 -64 -22 -67 -22 -4 l0 55 65 2 c54 1 66 -2 75 -18z m124 4 c13 -34
7 -44 -30 -44 -42 0 -43 -23 -1 -28 30 -4 27 -22 -3 -22 -41 0 -68 68 -38 98
17 17 65 15 72 -4z m87 7 c-35 -10 -36 -25 -1 -38 36 -14 39 -39 6 -54 -17 -8
-29 -8 -42 0 -17 9 -15 10 14 11 38 0 42 17 8 30 -51 19 -46 61 6 59 29 -1 30
-2 9 -8z m299 -12 c15 -27 5 -66 -20 -79 -48 -26 -95 30 -65 76 20 31 70 33
85 3z m83 11 c-19 -8 -23 -17 -23 -49 0 -22 -4 -43 -10 -46 -6 -4 -10 15 -10
49 l0 56 33 -1 c29 0 30 -1 10 -9z m185 -22 c3 -26 1 -28 -33 -28 -43 0 -44
-23 -2 -28 15 -2 25 -8 22 -13 -17 -26 -75 8 -75 43 0 39 19 59 53 56 27 -2
33 -8 35 -30z m57 -8 c6 -27 25 -43 25 -21 0 18 21 64 26 58 8 -8 -25 -107
-36 -107 -8 0 -40 83 -40 102 0 20 19 -4 25 -32z m163 28 c7 -7 12 -20 12 -30
0 -14 -8 -18 -36 -18 -43 0 -42 -22 2 -31 24 -5 26 -7 11 -14 -10 -4 -29 -3
-43 3 -18 9 -24 19 -24 45 0 38 15 57 45 57 12 0 26 -5 33 -12z m85 2 c-19 -8
-23 -17 -23 -49 0 -22 -4 -43 -10 -46 -6 -4 -10 15 -10 49 l0 56 33 -1 c29 0
30 -1 10 -9z m68 -38 l12 -37 19 44 c10 24 21 41 24 38 8 -8 -46 -157 -57
-157 -11 0 -11 11 0 29 6 9 3 32 -10 63 -10 27 -19 53 -19 59 0 21 19 -3 31
-39z m179 27 c15 -27 5 -66 -20 -79 -48 -26 -95 30 -65 76 20 31 70 33 85 3z
m124 5 c10 -25 7 -94 -4 -94 -5 0 -10 20 -10 44 0 48 -8 60 -34 50 -11 -4 -16
-19 -16 -44 0 -22 -4 -42 -10 -45 -6 -4 -10 15 -10 49 l0 56 39 0 c26 0 41 -5
45 -16z m124 -16 c3 -26 1 -28 -33 -28 -47 0 -42 -23 6 -30 31 -5 32 -6 11
-14 -29 -10 -72 17 -72 45 0 40 19 60 53 57 27 -2 33 -8 35 -30z m-4027 -174
c24 -21 33 -68 19 -94 -13 -24 -67 -60 -92 -60 -9 0 -30 12 -47 26 -23 19 -31
34 -31 57 1 78 95 122 151 71z m1290 -23 c70 -70 -7 -184 -91 -134 -35 20 -63
73 -54 100 24 67 95 84 145 34z m-1138 -111 c8 0 24 -11 35 -25 11 -14 26 -25
35 -25 8 0 26 -10 41 -21 21 -16 26 -27 22 -45 -8 -29 -66 -124 -77 -124 -19
0 -16 20 12 61 34 51 37 84 10 99 -30 16 -34 13 -64 -40 -30 -54 -42 -65 -57
-55 -7 4 -3 17 8 33 41 57 54 93 41 108 -24 29 -53 16 -87 -41 -23 -38 -37
-52 -48 -48 -13 5 -13 8 -1 27 8 11 29 45 47 74 30 49 34 52 49 37 10 -8 25
-15 34 -15z m927 0 c0 -6 -11 -16 -25 -22 -35 -16 -43 -53 -18 -86 24 -32 67
-40 93 -17 11 10 20 12 24 6 9 -14 -43 -51 -74 -51 -27 0 -58 26 -79 67 -17
34 -13 52 18 84 29 29 61 39 61 19z m-476 -172 c-6 -135 -8 -148 -24 -148 -6
0 -10 32 -10 83 0 117 10 187 26 187 11 0 13 -23 8 -122z m216 54 c0 -4 -11
-66 -25 -137 -14 -72 -25 -131 -25 -132 0 -2 -7 -3 -15 -3 -15 0 -14 20 1 69
2 7 -13 41 -34 75 -61 96 -65 106 -47 106 8 0 28 -21 43 -46 50 -85 48 -84 61
-9 7 38 15 73 17 77 7 10 24 10 24 0z m-352 -18 c14 -9 22 -26 22 -44 0 -55
-5 -59 -66 -44 -50 11 -54 11 -54 -6 0 -23 36 -50 67 -50 13 0 23 -4 23 -10 0
-18 -67 -11 -94 11 -38 30 -37 90 3 130 33 32 65 37 99 13z m492 -94 c0 -11
-6 -20 -14 -20 -18 0 -29 16 -21 30 11 18 35 11 35 -10z"/>
<path d="M1692 2838 c-6 -6 -12 -21 -12 -31 0 -17 5 -18 38 -12 46 8 49 12 36
33 -14 21 -45 27 -62 10z"/>
<path d="M2513 2570 c-48 -44 -36 -100 22 -100 55 0 87 67 49 104 -21 21 -46
20 -71 -4z"/>
<path d="M1208 2559 c-25 -14 -23 -64 4 -89 26 -24 61 -26 82 -4 23 22 20 51
-9 79 -26 27 -49 31 -77 14z"/>
<path d="M3848 2191 c-28 -25 -32 -35 -32 -77 0 -86 60 -141 124 -114 42 17
60 47 60 97 0 55 -17 91 -51 109 -41 21 -65 17 -101 -15z"/>
<path d="M4739 2191 c-16 -16 -29 -39 -29 -50 0 -19 6 -21 75 -21 l75 0 0 30
c0 37 -31 70 -66 70 -15 0 -38 -12 -55 -29z"/>
<path d="M6059 2205 c-73 -40 -57 -181 25 -208 98 -33 159 122 77 195 -35 31
-63 34 -102 13z"/>
<path d="M3510 1575 c-15 -18 -10 -45 13 -59 15 -9 21 -7 33 8 18 25 18 31 -2
50 -19 20 -28 20 -44 1z"/>
<path d="M3833 1583 c-24 -9 -14 -33 13 -33 18 0 25 5 22 17 -3 18 -16 24 -35
16z"/>
<path d="M4198 1565 c-13 -29 3 -55 33 -55 23 0 36 44 19 65 -18 22 -39 18
-52 -10z"/>
<path d="M4482 1578 c-19 -19 -14 -28 14 -28 18 0 25 5 22 17 -4 21 -21 26
-36 11z"/>
<path d="M4707 1583 c-16 -15 -6 -33 18 -33 28 0 34 24 9 34 -19 7 -19 7 -27
-1z"/>
<path d="M5020 1570 c-14 -26 3 -60 30 -60 24 0 38 44 20 65 -17 21 -37 19
-50 -5z"/>
<path d="M5282 1578 c-19 -19 -14 -28 14 -28 18 0 25 5 22 17 -4 21 -21 26
-36 11z"/>
<path d="M1212 1370 c-24 -23 -29 -69 -10 -88 19 -19 57 -14 83 13 30 29 32
56 7 78 -25 23 -54 21 -80 -3z"/>
<path d="M2496 1354 c-30 -29 -14 -74 33 -93 43 -18 71 -1 71 44 0 55 -67 87
-104 49z"/>
<path d="M1691 1092 c-9 -17 -7 -21 17 -26 15 -4 35 -9 45 -12 15 -5 18 -1 15
23 -2 23 -8 29 -35 31 -23 2 -34 -2 -42 -16z"/>
</g>
</svg>